<?xml version="1.0" encoding="UTF-8" standalone="no"?>
<!-- Created with Inkscape (http://www.inkscape.org/) -->

<svg
   xmlns:dc="http://purl.org/dc/elements/1.1/"
   xmlns:cc="http://creativecommons.org/ns#"
   xmlns:rdf="http://www.w3.org/1999/02/22-rdf-syntax-ns#"
   xmlns:svg="http://www.w3.org/2000/svg"
   xmlns="http://www.w3.org/2000/svg"
   xmlns:sodipodi="http://sodipodi.sourceforge.net/DTD/sodipodi-0.dtd"
   xmlns:inkscape="http://www.inkscape.org/namespaces/inkscape"
   width="744.09448819"
   height="1052.3622047"
   id="svg3096"
   version="1.1"
   inkscape:version="0.48.1 r9760"
   sodipodi:docname="wqueen.svg">
  <defs
     id="defs3098" />
  <sodipodi:namedview
     id="base"
     pagecolor="#ffffff"
     bordercolor="#666666"
     borderopacity="1.0"
     inkscape:pageopacity="0.0"
     inkscape:pageshadow="2"
     inkscape:zoom="0.35"
     inkscape:cx="375"
     inkscape:cy="520"
     inkscape:document-units="px"
     inkscape:current-layer="layer1"
     showgrid="false"
     inkscape:window-width="958"
     inkscape:window-height="1122"
     inkscape:window-x="960"
     inkscape:window-y="24"
     inkscape:window-maximized="0" />
  <metadata
     id="metadata3101">
    <rdf:RDF>
      <cc:Work
         rdf:about="">
        <dc:format>image/svg+xml</dc:format>
        <dc:type
           rdf:resource="http://purl.org/dc/dcmitype/StillImage" />
        <dc:title></dc:title>
      </cc:Work>
    </rdf:RDF>
  </metadata>
  <g
     inkscape:label="Layer 1"
     inkscape:groupmode="layer"
     id="layer1">
    <path
       style="fill:#bababa;fill-opacity:1;fill-rule:nonzero;stroke:#dedede;stroke-width:3.38839483;stroke-linecap:round;stroke-linejoin:round;stroke-miterlimit:4;stroke-opacity:1;stroke-dasharray:none;stroke-dashoffset:0"
       d="m 369.41671,235.48496 0,7.36976 -9.08513,0 0,4.91317 9.08513,0 0,9.06395 -12.26175,6.29305 4.40491,10.3948 c -2.34981,2.45368 -3.79076,5.78177 -3.79076,9.44515 0,5.08281 2.7816,9.50892 6.90385,11.85938 -5.8931,0.55254 -10.01694,1.80667 -10.01694,3.26132 0,1.5752 4.83768,2.89807 11.52054,3.36722 -2.13393,12.39001 -11.66878,14.22833 -11.66878,26.5989 l 0,4.04489 33.84159,0 -0.0212,-4.04489 c 10e-6,-12.47097 -9.68217,-13.27836 -11.71114,-26.5989 6.71605,-0.46509 11.58408,-1.787 11.58408,-3.36722 0,-1.45642 -4.13357,-2.7098 -10.03812,-3.26132 4.13094,-2.34689 6.92503,-6.77046 6.92503,-11.85938 0,-3.49187 -1.31525,-6.66943 -3.4731,-9.08513 l 4.76493,-10.75482 -12.26176,-6.29305 0,-9.06395 9.08514,0 0,-4.91317 -9.08514,0 0,-7.36976 -4.7014,0 z"
       id="WKing"
       sodipodi:nodetypes="ccccccccscsccccccscsccccccccc"
       inkscape:label="White King"
       inkscape:connector-curvature="0" />
  </g>
</svg>
